<svg
                                    xmlns="http://www.w3.org/2000/svg"
                                    fill="#fff"
                                    viewBox="0 0 24 24"
                                    class="platform-icon"
                                >
                                    <path
                                        d="M12 .297c-6.63 0-12 5.373-12 12 0 5.303
                                3.438 9.8 8.205 11.387.6.113.82-.258.82-.577
                                0-.285-.01-1.04-.015-2.04-3.338.724-4.042-1.61-4.042-1.61-.546-1.387-1.333-1.757-1.333-1.757-1.087-.744.084-.729.084-.729
                                1.205.084 1.838 1.236 1.838 1.236 1.07 1.835 2.807 1.305 3.495
                                .998.108-.775.42-1.305.763-1.605-2.665-.3-5.466-1.332-5.466-5.93
                                0-1.31.47-2.38 1.236-3.22-.124-.303-.536-1.523.117-3.176 0 0 1.008-.322
                                3.3 1.23a11.52 11.52 0 016 0c2.29-1.552 3.298-1.23
                                3.298-1.23.653 1.653.242 2.873.118 3.176.77.84
                                1.236 1.91 1.236 3.22 0 4.61-2.807 5.628-5.479
                                5.922.43.372.823 1.102.823 2.222 0 1.606-.014 2.896-.014
                                3.286 0 .319.218.694.824.576C20.565 22.092 24
                                17.592 24 12.297c0-6.627-5.373-12-12-12"
                                    />
                                </svg>
